# xmcd CD database file
#
# Track frame offsets:
#	150
#	38882
#	73892
#	99092
#	136970
#	165862
#	195452
#	221325
#	256317
#
# Disc length: 3941 seconds
#
# Revision: 0
# Processed by: cddbd v1.5PL3 Copyright (c) Steve Scherf et al.
# Submitted via: CDex 1.51
#
DISCID=720f6309
DTITLE=Gary Smulyan - The Real Deal
DYEAR=2003
DGENRE=Jazz
TTITLE0=Cindy's Tune
TTITLE1=Evol Deklaw Ni
TTITLE2=Satan (Wears A Satin Gown)
TTITLE3=Palomino Pal
TTITLE4=Young Afro Brown
TTITLE5=All My Life
TTITLE6=Our Love Is Here To Stay
TTITLE7=Follow Me
TTITLE8=Sassy Missy
EXTD=YEAR: 2003
EXTT0=
EXTT1=
EXTT2=
EXTT3=
EXTT4=
EXTT5=
EXTT6=
EXTT7=
EXTT8=
PLAYORDER=
